<svg xmlns="http://www.w3.org/2000/svg" width="90" height="90" viewBox="0 0 90 90" fill="none">
<path d="M26.2313 50.4871C24.776 53.4658 22.1971 55.7444 19.0618 56.8217C15.9265 57.8989 12.4916 57.6866 9.51291 56.2313C6.53419 54.776 4.25557 52.1971 3.17832 49.0618C2.10107 45.9265 2.31344 42.4916 3.76871 39.5129C5.22397 36.5342 7.80293 34.2556 10.9382 33.1783C14.0735 32.1011 17.5084 32.3134 20.4871 33.7687C23.4658 35.224 25.7444 37.8029 26.8217 40.9382C27.8989 44.0735 27.6866 47.5084 26.2313 50.4871L26.2313 50.4871Z" stroke="#1AD1A5" stroke-width="5" stroke-linecap="round"/>
<path d="M56.2313 80.4871C54.776 83.4658 52.1971 85.7444 49.0618 86.8217C45.9265 87.8989 42.4916 87.6866 39.5129 86.2313C36.5342 84.776 34.2556 82.1971 33.1783 79.0618C32.1011 75.9265 32.3134 72.4916 33.7687 69.5129C35.224 66.5342 37.8029 64.2556 40.9382 63.1783C44.0735 62.1011 47.5084 62.3134 50.4871 63.7687C53.4658 65.224 55.7444 67.8029 56.8217 70.9382C57.8989 74.0735 57.6866 77.5084 56.2313 80.4871L56.2313 80.4871Z" stroke="#1AD1A5" stroke-width="5" stroke-linecap="round"/>
<path d="M86.2313 50.4871C84.776 53.4658 82.1971 55.7444 79.0618 56.8217C75.9265 57.8989 72.4916 57.6866 69.5129 56.2313C66.5342 54.776 64.2556 52.1971 63.1783 49.0618C62.1011 45.9265 62.3134 42.4916 63.7687 39.5129C65.224 36.5342 67.8029 34.2556 70.9382 33.1783C74.0735 32.1011 77.5084 32.3134 80.4871 33.7687C83.4658 35.224 85.7444 37.8029 86.8217 40.9382C87.8989 44.0735 87.6866 47.5084 86.2313 50.4871L86.2313 50.4871Z" stroke="#1AD1A5" stroke-width="5" stroke-linecap="round"/>
<path d="M56.2313 20.4871C54.776 23.4658 52.1971 25.7444 49.0618 26.8217C45.9265 27.8989 42.4916 27.6866 39.5129 26.2313C36.5342 24.776 34.2556 22.1971 33.1783 19.0618C32.1011 15.9265 32.3134 12.4916 33.7687 9.51291C35.224 6.53419 37.8029 4.25557 40.9382 3.17832C44.0735 2.10108 47.5084 2.31345 50.4871 3.76871C53.4658 5.22398 55.7444 7.80293 56.8217 10.9382C57.8989 14.0735 57.6866 17.5084 56.2313 20.4871L56.2313 20.4871Z" stroke="#1AD1A5" stroke-width="5" stroke-linecap="round"/>
<line x1="35.7678" y1="24.7678" x2="22.7678" y2="37.7678" stroke="#1AD1A5" stroke-width="5"/>
<line x1="65.7678" y1="54.7678" x2="53.7678" y2="66.7678" stroke="#1AD1A5" stroke-width="5"/>
<line x1="61" y1="45.5" x2="28" y2="45.5" stroke="#1AD1A5" stroke-width="5"/>
</svg>