<svg width="249" height="127" viewBox="0 0 249 127" fill="none" xmlns="http://www.w3.org/2000/svg">
<path d="M12.6528 75.843C10.6746 75.843 8.91613 75.4586 7.37748 74.6897C5.86631 73.8934 4.68485 72.7813 3.83309 71.3534C3.00882 69.898 2.59668 68.2367 2.59668 66.3695V55.8251C2.59668 53.9303 3.00882 52.2691 3.83309 50.8412C4.68485 49.4133 5.86631 48.3149 7.37748 47.546C8.91613 46.7497 10.6746 46.3515 12.6528 46.3515C14.6311 46.3515 16.3758 46.736 17.887 47.5048C19.3982 48.2737 20.5659 49.3446 21.3902 50.7176C22.2419 52.0631 22.6678 53.5871 22.6678 55.2896V55.7427C22.6678 56.0173 22.5304 56.1546 22.2557 56.1546H19.1234C18.8487 56.1546 18.7113 56.0173 18.7113 55.7427V55.372C18.7113 53.7244 18.148 52.3926 17.0215 51.3766C15.9225 50.3332 14.4663 49.8114 12.6528 49.8114C10.812 49.8114 9.32827 50.3469 8.20176 51.4178C7.10272 52.4887 6.5532 53.9166 6.5532 55.7015V66.4931C6.5532 68.2779 7.1302 69.7058 8.28418 70.7767C9.43817 71.8476 10.9493 72.3831 12.8177 72.3831C14.6311 72.3831 16.0599 71.9163 17.1039 70.9827C18.1755 70.0216 18.7113 68.7173 18.7113 67.0697V63.8981C18.7113 63.7883 18.6563 63.7334 18.5464 63.7334H12.9826C12.7078 63.7334 12.5704 63.5961 12.5704 63.3215V60.7678C12.5704 60.4932 12.7078 60.3559 12.9826 60.3559H22.2557C22.5304 60.3559 22.6678 60.4932 22.6678 60.7678V65.9988C22.6678 69.1566 21.7611 71.5868 19.9477 73.2893C18.1618 74.9918 15.7301 75.843 12.6528 75.843ZM30.5512 51.2531C29.7819 51.2531 29.15 51.0059 28.6554 50.5116C28.1608 50.0174 27.9135 49.3858 27.9135 48.6169C27.9135 47.8481 28.1608 47.2165 28.6554 46.7222C29.15 46.228 29.7819 45.9808 30.5512 45.9808C31.3205 45.9808 31.9525 46.228 32.4471 46.7222C32.9416 47.2165 33.1889 47.8481 33.1889 48.6169C33.1889 49.3858 32.9416 50.0174 32.4471 50.5116C31.9525 51.0059 31.3205 51.2531 30.5512 51.2531ZM28.9027 75.4723C28.6279 75.4723 28.4905 75.335 28.4905 75.0604V54.9601C28.4905 54.6855 28.6279 54.5482 28.9027 54.5482H32.0349C32.3097 54.5482 32.4471 54.6855 32.4471 54.9601V75.0604C32.4471 75.335 32.3097 75.4723 32.0349 75.4723H28.9027ZM47.8974 50.1409C46.5236 50.1409 45.5894 50.4018 45.0949 50.9235C44.6003 51.4453 44.353 52.4338 44.353 53.8892V54.3834C44.353 54.4933 44.408 54.5482 44.5179 54.5482H48.8453C49.1201 54.5482 49.2575 54.6855 49.2575 54.9601V57.7609C49.2575 58.0355 49.1201 58.1728 48.8453 58.1728H44.5179C44.408 58.1728 44.353 58.2278 44.353 58.3376V75.1016C44.353 75.3762 44.2157 75.5135 43.9409 75.5135H40.8086C40.5339 75.5135 40.3965 75.3762 40.3965 75.1016V58.3376C40.3965 58.2278 40.3416 58.1728 40.2317 58.1728H37.4703C37.1956 58.1728 37.0582 58.0355 37.0582 57.7609V54.9601C37.0582 54.6855 37.1956 54.5482 37.4703 54.5482H40.2317C40.3416 54.5482 40.3965 54.4933 40.3965 54.3834V53.642C40.3965 51.8297 40.6026 50.4293 41.0147 49.4407C41.4543 48.4522 42.1824 47.752 43.199 47.3401C44.2157 46.9007 45.6444 46.6811 47.4853 46.6811H48.8866C49.1613 46.6811 49.2987 46.8183 49.2987 47.0929V49.7291C49.2987 50.0036 49.1613 50.1409 48.8866 50.1409H47.8974ZM64.1434 57.3902C64.1434 57.6648 64.006 57.8021 63.7312 57.8021H59.2802C59.1702 57.8021 59.1153 57.8571 59.1153 57.9669V68.882C59.1153 70.0353 59.3763 70.8728 59.8984 71.3946C60.4204 71.8888 61.2309 72.136 62.33 72.136H63.5252C63.7999 72.136 63.9373 72.2733 63.9373 72.5479V75.1016C63.9373 75.3762 63.7999 75.5135 63.5252 75.5135C62.6459 75.5684 62.014 75.5959 61.6293 75.5959C59.5412 75.5959 57.9613 75.2252 56.8898 74.4838C55.8457 73.7149 55.3236 72.3145 55.3236 70.2825V57.9669C55.3236 57.8571 55.2687 57.8021 55.1588 57.8021H52.6447C52.37 57.8021 52.2326 57.6648 52.2326 57.3902V54.9601C52.2326 54.6855 52.37 54.5482 52.6447 54.5482H55.1588C55.2687 54.5482 55.3236 54.4933 55.3236 54.3834V49.5231C55.3236 49.2485 55.461 49.1112 55.7358 49.1112H58.7032C58.9779 49.1112 59.1153 49.2485 59.1153 49.5231V54.3834C59.1153 54.4933 59.1702 54.5482 59.2802 54.5482H63.7312C64.006 54.5482 64.1434 54.6855 64.1434 54.9601V57.3902ZM78.78 75.8842C76.8018 75.8842 75.0433 75.4998 73.5047 74.7309C71.9935 73.9346 70.812 72.8225 69.9603 71.3946C69.136 69.9392 68.7239 68.2779 68.7239 66.4107V55.7427C68.7239 53.8754 69.136 52.2416 69.9603 50.8412C70.812 49.4133 71.9935 48.3149 73.5047 47.546C75.0433 46.7497 76.8018 46.3515 78.78 46.3515C80.7583 46.3515 82.503 46.736 84.0142 47.5048C85.5254 48.2462 86.6934 49.3034 87.5177 50.6764C88.3694 52.0494 88.7953 53.642 88.7953 55.4543V55.4955C88.7953 55.6328 88.7541 55.7427 88.6717 55.8251C88.5893 55.9074 88.4931 55.9486 88.3832 55.9486L85.2506 56.1134C84.9758 56.1134 84.8385 55.9898 84.8385 55.7427V55.6191C84.8385 53.8617 84.2889 52.4475 83.1899 51.3766C82.0909 50.3057 80.6209 49.7702 78.78 49.7702C76.9391 49.7702 75.4554 50.3057 74.3289 51.3766C73.2299 52.4475 72.6804 53.8617 72.6804 55.6191V66.5754C72.6804 68.3328 73.2299 69.747 74.3289 70.8179C75.4554 71.8888 76.9391 72.4243 78.78 72.4243C80.6209 72.4243 82.0909 71.8888 83.1899 70.8179C84.2889 69.747 84.8385 68.3328 84.8385 66.5754V66.4931C84.8385 66.2459 84.9758 66.1223 85.2506 66.1223L88.3832 66.2871C88.6579 66.2871 88.7953 66.4244 88.7953 66.699C88.7953 68.5113 88.3694 70.1177 87.5177 71.5181C86.6934 72.8911 85.5254 73.962 84.0142 74.7309C82.503 75.4998 80.7583 75.8842 78.78 75.8842ZM102.579 75.843C100.546 75.843 98.7734 75.335 97.2622 74.319C95.751 73.2755 94.6932 71.8339 94.0887 69.9941C93.5942 68.5113 93.3469 66.8363 93.3469 64.969C93.3469 63.0194 93.5804 61.3719 94.0475 60.0264C94.652 58.214 95.7098 56.7999 97.221 55.7839C98.7321 54.7404 100.532 54.2187 102.62 54.2187C104.598 54.2187 106.315 54.7404 107.772 55.7839C109.255 56.7999 110.313 58.2003 110.945 59.9852C111.44 61.3856 111.687 63.0332 111.687 64.9279C111.687 66.85 111.44 68.5388 110.945 69.9941C110.341 71.8339 109.297 73.2755 107.813 74.319C106.329 75.335 104.584 75.843 102.579 75.843ZM102.579 72.4243C103.678 72.4243 104.639 72.1222 105.464 71.5181C106.288 70.8866 106.879 70.0079 107.236 68.882C107.538 67.8386 107.689 66.548 107.689 65.0102C107.689 63.4725 107.552 62.1956 107.277 61.1796C106.92 60.0538 106.329 59.1888 105.505 58.5847C104.681 57.9532 103.678 57.6374 102.496 57.6374C101.37 57.6374 100.394 57.9532 99.5701 58.5847C98.7459 59.1888 98.1551 60.0538 97.798 61.1796C97.4957 62.1407 97.3446 63.4176 97.3446 65.0102C97.3446 66.6029 97.4957 67.8935 97.798 68.882C98.1277 70.0079 98.7047 70.8866 99.5289 71.5181C100.381 72.1222 101.397 72.4243 102.579 72.4243ZM138.669 54.2599C140.757 54.2599 142.406 54.8914 143.615 56.1546C144.824 57.3902 145.428 59.1202 145.428 61.3444V75.1016C145.428 75.3762 145.291 75.5135 145.016 75.5135H141.925C141.65 75.5135 141.513 75.3762 141.513 75.1016V62.1682C141.513 60.7952 141.128 59.7106 140.359 58.9142C139.617 58.0905 138.614 57.6786 137.35 57.6786C136.086 57.6786 135.056 58.0767 134.259 58.8731C133.462 59.6694 133.064 60.7403 133.064 62.0858V75.1016C133.064 75.3762 132.927 75.5135 132.652 75.5135H129.561C129.286 75.5135 129.149 75.3762 129.149 75.1016V62.1682C129.149 60.7952 128.764 59.7106 127.995 58.9142C127.253 58.0905 126.25 57.6786 124.986 57.6786C123.722 57.6786 122.706 58.0767 121.936 58.8731C121.195 59.6694 120.824 60.7403 120.824 62.0858V75.1016C120.824 75.3762 120.686 75.5135 120.411 75.5135H117.279C117.004 75.5135 116.867 75.3762 116.867 75.1016V54.9601C116.867 54.6855 117.004 54.5482 117.279 54.5482H120.411C120.686 54.5482 120.824 54.6855 120.824 54.9601V56.3605C120.824 56.4154 120.837 56.4566 120.865 56.4841C120.92 56.5115 120.975 56.4978 121.03 56.4429C122.239 54.9875 123.997 54.2599 126.305 54.2599C127.706 54.2599 128.901 54.5345 129.891 55.0836C130.88 55.6054 131.649 56.388 132.199 57.4314C132.281 57.5413 132.363 57.5413 132.446 57.4314C133.105 56.3605 133.971 55.5642 135.042 55.0425C136.141 54.5207 137.35 54.2599 138.669 54.2599ZM167.938 59.8204C168.46 61.3032 168.721 63.0606 168.721 65.0926C168.721 67.0148 168.501 68.6761 168.061 70.0765C167.484 71.9163 166.537 73.3442 165.218 74.3602C163.899 75.3487 162.209 75.843 160.148 75.843C159.214 75.843 158.321 75.6645 157.47 75.3075C156.645 74.9231 155.931 74.3876 155.326 73.7012C155.271 73.6462 155.217 73.6325 155.162 73.66C155.134 73.6874 155.12 73.7286 155.12 73.7835V82.9687C155.12 83.2433 154.983 83.3806 154.708 83.3806H151.576C151.301 83.3806 151.164 83.2433 151.164 82.9687V54.9601C151.164 54.6855 151.301 54.5482 151.576 54.5482H154.708C154.983 54.5482 155.12 54.6855 155.12 54.9601V56.3193C155.12 56.3742 155.134 56.4154 155.162 56.4429C155.217 56.4703 155.271 56.4566 155.326 56.4017C155.931 55.7152 156.645 55.1798 157.47 54.7953C158.294 54.4109 159.187 54.2187 160.148 54.2187C162.127 54.2187 163.761 54.7129 165.053 55.7015C166.372 56.6626 167.333 58.0355 167.938 59.8204ZM163.404 70.4472C164.284 69.1292 164.723 67.3168 164.723 65.0102C164.723 62.8959 164.38 61.1934 163.693 59.9028C162.896 58.3925 161.591 57.6374 159.777 57.6374C158.184 57.6374 156.975 58.3788 156.151 59.8616C155.491 61.0424 155.162 62.7723 155.162 65.0514C155.162 67.358 155.519 69.1154 156.233 70.3236C157.03 71.7241 158.198 72.4243 159.736 72.4243C161.385 72.4243 162.608 71.7653 163.404 70.4472ZM181.564 54.2187C183.24 54.2187 184.696 54.5207 185.933 55.1248C187.197 55.7015 188.158 56.5253 188.818 57.5962C189.505 58.6396 189.848 59.8341 189.848 61.1796V75.1016C189.848 75.3762 189.711 75.5135 189.436 75.5135H186.304C186.029 75.5135 185.892 75.3762 185.892 75.1016V73.6188C185.892 73.4815 185.823 73.454 185.686 73.5364C184.971 74.2778 184.092 74.8545 183.048 75.2663C182.031 75.6508 180.891 75.843 179.627 75.843C177.594 75.843 175.904 75.335 174.558 74.319C173.239 73.2755 172.58 71.7103 172.58 69.6234C172.58 67.4816 173.321 65.8066 174.805 64.5983C176.316 63.3627 178.418 62.7448 181.111 62.7448H185.727C185.837 62.7448 185.892 62.6899 185.892 62.5801V61.468C185.892 60.2598 185.534 59.3261 184.82 58.6671C184.133 57.9806 183.075 57.6374 181.647 57.6374C180.493 57.6374 179.545 57.8708 178.803 58.3376C178.088 58.7769 177.649 59.3811 177.484 60.1499C177.402 60.4245 177.237 60.5481 176.989 60.5206L173.651 60.0675C173.376 60.0126 173.253 59.9028 173.28 59.738C173.5 58.1179 174.365 56.7999 175.877 55.7839C177.388 54.7404 179.284 54.2187 181.564 54.2187ZM180.493 72.5067C181.949 72.5067 183.213 72.1222 184.284 71.3534C185.356 70.5845 185.892 69.6097 185.892 68.4289V65.9988C185.892 65.8889 185.837 65.834 185.727 65.834H181.853C180.232 65.834 178.94 66.1498 177.979 66.7814C177.017 67.4129 176.536 68.2916 176.536 69.4175C176.536 70.4335 176.893 71.2023 177.608 71.7241C178.349 72.2458 179.311 72.5067 180.493 72.5067ZM202.567 75.7606C200.918 75.7606 199.462 75.5135 198.198 75.0192C196.962 74.5249 196 73.8522 195.313 73.0009C194.626 72.1222 194.283 71.1612 194.283 70.1177V69.6646C194.283 69.39 194.42 69.2527 194.695 69.2527H197.662C197.937 69.2527 198.075 69.39 198.075 69.6646V69.8706C198.075 70.6394 198.487 71.3122 199.311 71.8888C200.163 72.4655 201.234 72.7538 202.526 72.7538C203.762 72.7538 204.765 72.4929 205.534 71.9712C206.304 71.422 206.688 70.7355 206.688 69.9118C206.688 69.1154 206.331 68.525 205.617 68.1406C204.902 67.7287 203.748 67.3031 202.155 66.8638C200.589 66.4244 199.27 65.9851 198.198 65.5457C197.154 65.0789 196.261 64.4336 195.519 63.6098C194.805 62.7586 194.448 61.6739 194.448 60.3559C194.448 58.5161 195.162 57.0607 196.591 55.9898C198.047 54.8914 199.97 54.3422 202.361 54.3422C203.954 54.3422 205.356 54.6031 206.565 55.1248C207.801 55.6191 208.749 56.3193 209.408 57.2255C210.068 58.1316 210.397 59.1476 210.397 60.2735V60.3971C210.397 60.6716 210.26 60.8089 209.985 60.8089H207.1C206.826 60.8089 206.688 60.6716 206.688 60.3971V60.2735C206.688 59.4772 206.29 58.8181 205.493 58.2964C204.724 57.7472 203.666 57.4726 202.32 57.4726C201.111 57.4726 200.122 57.706 199.352 58.1728C198.61 58.6396 198.239 59.2712 198.239 60.0675C198.239 60.8639 198.597 61.468 199.311 61.8799C200.053 62.2918 201.234 62.7311 202.855 63.1979C204.449 63.6373 205.768 64.0766 206.812 64.516C207.883 64.9279 208.79 65.5594 209.532 66.4107C210.274 67.2345 210.645 68.3191 210.645 69.6646C210.645 71.5319 209.903 73.0147 208.419 74.113C206.963 75.2114 205.012 75.7606 202.567 75.7606ZM222.167 75.7606C220.519 75.7606 219.063 75.5135 217.799 75.0192C216.562 74.5249 215.601 73.8522 214.914 73.0009C214.227 72.1222 213.883 71.1612 213.883 70.1177V69.6646C213.883 69.39 214.021 69.2527 214.296 69.2527H217.263C217.538 69.2527 217.675 69.39 217.675 69.6646V69.8706C217.675 70.6394 218.087 71.3122 218.912 71.8888C219.763 72.4655 220.835 72.7538 222.126 72.7538C223.363 72.7538 224.366 72.4929 225.135 71.9712C225.904 71.422 226.289 70.7355 226.289 69.9118C226.289 69.1154 225.932 68.525 225.217 68.1406C224.503 67.7287 223.349 67.3031 221.755 66.8638C220.189 66.4244 218.87 65.9851 217.799 65.5457C216.755 65.0789 215.862 64.4336 215.12 63.6098C214.406 62.7586 214.048 61.6739 214.048 60.3559C214.048 58.5161 214.763 57.0607 216.191 55.9898C217.648 54.8914 219.571 54.3422 221.961 54.3422C223.555 54.3422 224.956 54.6031 226.165 55.1248C227.402 55.6191 228.35 56.3193 229.009 57.2255C229.668 58.1316 229.998 59.1476 229.998 60.2735V60.3971C229.998 60.6716 229.861 60.8089 229.586 60.8089H226.701C226.426 60.8089 226.289 60.6716 226.289 60.3971V60.2735C226.289 59.4772 225.89 58.8181 225.094 58.2964C224.324 57.7472 223.266 57.4726 221.92 57.4726C220.711 57.4726 219.722 57.706 218.953 58.1728C218.211 58.6396 217.84 59.2712 217.84 60.0675C217.84 60.8639 218.197 61.468 218.912 61.8799C219.653 62.2918 220.835 62.7311 222.456 63.1979C224.05 63.6373 225.368 64.0766 226.412 64.516C227.484 64.9279 228.391 65.5594 229.133 66.4107C229.874 67.2345 230.245 68.3191 230.245 69.6646C230.245 71.5319 229.504 73.0147 228.02 74.113C226.564 75.2114 224.613 75.7606 222.167 75.7606Z" fill="#CEDBDC"/>
<path d="M131.459 37.1323C137.422 24.9339 147.344 15.1141 159.607 9.274C171.871 3.43391 185.752 1.91796 198.989 4.97334C212.224 8.02871 224.035 15.4752 232.493 26.0987C240.951 36.7221 245.559 49.8961 245.565 63.4725C245.571 77.0488 240.976 90.2266 232.527 100.859C224.078 111.49 212.275 118.947 199.042 122.014C185.809 125.082 171.926 123.579 159.657 117.75C147.388 111.92 137.457 102.111 131.483 89.9169" stroke="url(#paint0_linear_87_71)" stroke-width="4" stroke-linecap="round"/>
<defs>
<linearGradient id="paint0_linear_87_71" x1="101.746" y1="99.1115" x2="271.299" y2="35.1156" gradientUnits="userSpaceOnUse">
<stop stop-color="#144884"/>
<stop offset="1" stop-color="#C8D3F1"/>
</linearGradient>
</defs>
</svg>
