<svg width="90" height="90" viewBox="0 0 90 90" fill="none" xmlns="http://www.w3.org/2000/svg">
<path d="M24.8835 49.8286C23.6029 52.4499 21.3334 54.4551 18.5744 55.4031C15.8153 56.3511 12.7926 56.1642 10.1714 54.8835C7.55008 53.6029 5.5449 51.3334 4.59692 48.5744C3.64894 45.8153 3.83583 42.7926 5.11646 40.1714C6.3971 37.5501 8.66658 35.5449 11.4256 34.5969C14.1847 33.6489 17.2074 33.8358 19.8286 35.1165C22.4499 36.3971 24.4551 38.6666 25.4031 41.4256C26.3511 44.1847 26.1642 47.2074 24.8835 49.8286L24.8835 49.8286Z" stroke="#3abff8" stroke-width="8" stroke-linecap="round"/>
<path d="M54.8835 79.8286C53.6029 82.4499 51.3334 84.4551 48.5744 85.4031C45.8153 86.3511 42.7926 86.1642 40.1714 84.8835C37.5501 83.6029 35.5449 81.3334 34.5969 78.5744C33.6489 75.8153 33.8358 72.7926 35.1165 70.1714C36.3971 67.5501 38.6666 65.5449 41.4256 64.5969C44.1847 63.6489 47.2074 63.8358 49.8286 65.1165C52.4499 66.3971 54.4551 68.6666 55.4031 71.4256C56.3511 74.1847 56.1642 77.2074 54.8835 79.8286L54.8835 79.8286Z" stroke="#3abff8" stroke-width="8" stroke-linecap="round"/>
<path d="M84.8835 49.8286C83.6029 52.4499 81.3334 54.4551 78.5744 55.4031C75.8153 56.3511 72.7926 56.1642 70.1714 54.8835C67.5501 53.6029 65.5449 51.3334 64.5969 48.5744C63.6489 45.8153 63.8358 42.7926 65.1165 40.1714C66.3971 37.5501 68.6666 35.5449 71.4256 34.5969C74.1847 33.6489 77.2074 33.8358 79.8286 35.1165C82.4499 36.3971 84.4551 38.6666 85.4031 41.4256C86.3511 44.1847 86.1642 47.2074 84.8835 49.8286L84.8835 49.8286Z" stroke="#3abff8" stroke-width="8" stroke-linecap="round"/>
<path d="M54.8835 19.8286C53.6029 22.4499 51.3334 24.4551 48.5744 25.4031C45.8153 26.3511 42.7926 26.1642 40.1714 24.8835C37.5501 23.6029 35.5449 21.3334 34.5969 18.5744C33.6489 15.8153 33.8358 12.7926 35.1165 10.1714C36.3971 7.55009 38.6666 5.5449 41.4256 4.59693C44.1847 3.64895 47.2074 3.83583 49.8286 5.11647C52.4499 6.3971 54.4551 8.66658 55.4031 11.4256C56.3511 14.1847 56.1642 17.2074 54.8835 19.8286L54.8835 19.8286Z" stroke="#3abff8" stroke-width="8" stroke-linecap="round"/>
<line x1="36.8284" y1="25.8284" x2="23.8284" y2="38.8284" stroke="#3abff8" stroke-width="8"/>
<line x1="66.8284" y1="55.8284" x2="54.8284" y2="67.8284" stroke="#3abff8" stroke-width="8"/>
<line x1="61" y1="47" x2="28" y2="47" stroke="#3abff8" stroke-width="8"/>
</svg>
