<svg width="637" height="426" viewBox="0 0 637 426" fill="none" xmlns="http://www.w3.org/2000/svg">
<g clip-path="url(#clip0_89_131)">
<path d="M142.684 257.405C114.465 229.249 102.547 199.875 109.123 174.694C117.564 142.381 155.059 120.038 211.995 113.396L212.206 115.25C156.062 121.799 119.139 143.64 110.903 175.171C104.502 199.677 116.248 228.41 143.975 256.077L142.684 257.405Z" fill="#F0F0F0"/>
<path d="M414.95 357.353C379.731 357.353 341.46 352.048 303.445 341.848C256.434 329.233 213.331 310.193 178.794 286.785L179.817 285.235C214.187 308.53 257.1 327.483 303.916 340.044C346.222 351.397 388.846 356.657 427.164 355.269L427.231 357.132C423.184 357.28 419.091 357.354 414.95 357.353Z" fill="#F0F0F0"/>
<path d="M495.747 345.622L495.158 343.855C526.656 333.06 546.357 315.672 552.131 293.567C559.471 265.467 543.526 232.859 507.234 201.749C470.756 170.481 418.156 144.536 359.119 128.695L359.59 126.892C418.884 142.803 471.741 168.882 508.422 200.325C545.287 231.926 561.442 265.21 553.911 294.045C547.971 316.783 527.859 334.618 495.747 345.622Z" fill="#F0F0F0"/>
<path d="M206.516 358.132C137.313 327.023 83.9863 286.663 56.3608 244.486L57.894 243.454C85.3284 285.339 138.375 325.46 207.262 356.427L206.516 358.132Z" fill="#F0F0F0"/>
<path d="M449.83 412.026C442.692 412.026 435.432 411.865 428.05 411.542L428.129 409.678C483.217 412.096 531.823 405.414 568.7 390.351L569.388 392.082C537.219 405.22 496.217 412.026 449.83 412.026Z" fill="#F0F0F0"/>
<path d="M409.677 115.069C398.239 111.295 386.474 107.78 374.709 104.623C307.005 86.4564 240.451 80.0062 182.24 85.9736L182.055 84.1173C240.483 78.1303 307.264 84.596 375.18 102.82C386.978 105.986 398.776 109.51 410.247 113.296L409.677 115.069Z" fill="#F0F0F0"/>
<path d="M99.4341 260.204C71.2151 232.047 59.2967 202.673 65.8735 177.492C74.3136 145.179 111.809 122.837 168.745 116.195L168.956 118.048C112.812 124.597 75.8885 146.438 67.6528 177.97C61.2522 202.475 72.9975 231.208 100.725 258.875L99.4341 260.204Z" fill="#F0F0F0"/>
<path d="M371.7 360.151C336.481 360.151 298.209 354.846 260.194 344.646C213.184 332.031 170.081 312.991 135.544 289.583L136.567 288.033C170.937 311.328 213.849 330.281 260.665 342.842C302.972 354.195 345.596 359.455 383.914 358.067L383.98 359.93C379.933 360.078 375.84 360.151 371.7 360.151Z" fill="#F0F0F0"/>
<path d="M452.497 348.42L451.908 346.653C483.406 335.859 503.107 318.47 508.881 296.366C516.221 268.266 500.276 235.657 463.984 204.547C427.506 173.279 374.906 147.335 315.869 131.494L316.34 129.69C375.634 145.601 428.491 171.68 465.172 203.123C502.037 234.724 518.192 268.008 510.661 296.843C504.721 319.581 484.609 337.416 452.497 348.42Z" fill="#F0F0F0"/>
<path d="M163.266 360.931C94.0623 329.822 40.7358 289.461 13.1104 247.284L14.6435 246.252C42.078 288.138 95.1245 328.259 164.012 359.225L163.266 360.931Z" fill="#F0F0F0"/>
<path d="M406.579 414.824C399.441 414.824 392.181 414.663 384.799 414.34L384.878 412.476C439.967 414.894 488.572 408.212 525.449 393.149L526.138 394.88C493.968 408.018 452.967 414.824 406.579 414.824Z" fill="#F0F0F0"/>
<path d="M366.427 117.867C354.989 114.093 343.223 110.578 331.458 107.421C263.754 89.2546 197.2 82.8044 138.989 88.7718L138.804 86.9155C197.232 80.9285 264.014 87.3942 331.929 105.618C343.727 108.784 355.526 112.309 366.996 116.094L366.427 117.867Z" fill="#F0F0F0"/>
<path d="M44.4797 210.24C57.7054 195.21 78.8026 186.05 97.9213 191.533C80.2835 204.184 67.6291 222.751 62.1972 243.949C60.1315 252.132 58.6746 261.451 51.9606 266.454C47.783 269.567 42.2476 270.311 37.11 269.602C31.9722 268.893 27.1142 266.867 22.3218 264.861L21.0322 264.974C24.7399 245.188 31.2541 225.27 44.4797 210.24Z" fill="#F2F2F2"/>
<path d="M97.8627 191.952C81.8781 195.874 67.5194 204.802 56.826 217.467C54.4761 220.152 52.5586 223.196 51.1439 226.486C49.868 229.737 49.4741 233.274 50.0031 236.731C50.4325 239.964 51.2411 243.221 50.8876 246.503C50.6821 248.181 50.1289 249.796 49.2645 251.241C48.4002 252.687 47.244 253.931 45.8719 254.892C42.5146 257.377 38.4766 258.491 34.4904 259.441C30.0645 260.496 25.4508 261.521 21.843 264.503C21.4059 264.864 20.8784 264.155 21.3149 263.795C27.5919 258.608 36.3155 259.274 43.2604 255.506C46.5011 253.748 49.2386 250.99 49.9042 247.205C50.4862 243.895 49.6552 240.535 49.1926 237.266C48.6277 233.901 48.8842 230.448 49.9398 227.207C51.1846 223.854 52.9833 220.74 55.2588 217.999C60.2844 211.746 66.249 206.332 72.9339 201.956C80.5361 196.919 88.9323 193.237 97.7593 191.07C98.3057 190.936 98.4056 191.819 97.8627 191.952Z" fill="white"/>
<path d="M60.0323 213.184C58.1794 211.077 57.1257 208.371 57.0595 205.549C56.9932 202.728 57.9187 199.974 59.6706 197.78C60.0266 197.338 60.722 197.877 60.3655 198.321C58.7304 200.361 57.8686 202.926 57.9356 205.553C58.0026 208.181 58.994 210.697 60.7309 212.649C61.1078 213.073 60.4071 213.606 60.0323 213.184Z" fill="white"/>
<path d="M49.5725 235.121C55.2524 235.503 60.8658 233.701 65.2934 230.075C65.7318 229.715 66.2593 230.424 65.8215 230.783C61.207 234.548 55.3617 236.411 49.4519 236C48.8886 235.96 49.0123 235.081 49.5725 235.121Z" fill="white"/>
<path d="M80.7332 198.079C81.2826 199.046 82.0602 199.859 82.9962 200.445C83.9323 201.032 84.9974 201.374 86.0961 201.441C86.6595 201.473 86.5353 202.352 85.9755 202.32C84.762 202.241 83.5861 201.862 82.5505 201.216C81.5149 200.57 80.6511 199.676 80.0346 198.614C79.9683 198.519 79.9401 198.402 79.956 198.286C79.9718 198.171 80.0304 198.066 80.1199 197.992C80.2127 197.922 80.3293 197.892 80.4441 197.908C80.559 197.924 80.6628 197.985 80.7332 198.079Z" fill="white"/>
<path d="M125.06 253.926C124.708 253.916 124.355 253.906 123.999 253.902C119.26 253.792 114.52 254.072 109.827 254.74C109.463 254.786 109.095 254.838 108.733 254.894C97.4417 256.626 86.5655 260.467 76.6573 266.222C72.7167 268.516 68.954 271.111 65.4018 273.983C60.4963 277.951 55.4888 282.648 49.7457 284.681C49.1489 284.9 48.5393 285.081 47.9203 285.224L21.2681 266.56C21.2285 266.487 21.1845 266.419 21.1446 266.346L20.0469 265.65C20.2199 265.489 20.4027 265.326 20.5757 265.164C20.6757 265.071 20.7816 264.981 20.8815 264.887C20.9501 264.826 21.0189 264.765 21.0773 264.705C21.1 264.685 21.1231 264.665 21.1416 264.65C21.2 264.591 21.2604 264.542 21.3146 264.489C22.3341 263.573 23.3618 262.663 24.3976 261.758C24.4018 261.752 24.4018 261.752 24.412 261.75C32.3215 254.879 40.8665 248.616 50.0778 243.867C50.355 243.724 50.6361 243.575 50.9254 243.44C55.0891 241.323 59.4166 239.554 63.8647 238.151C66.3027 237.391 68.7772 236.757 71.2785 236.25C77.7441 234.954 84.3707 234.696 90.9152 235.487C103.961 237.066 116.364 242.856 124.45 253.135C124.657 253.398 124.858 253.657 125.06 253.926Z" fill="#F2F2F2"/>
<path d="M124.767 254.227C109.674 247.605 92.9062 245.971 76.8449 249.558C73.3738 250.268 70.0348 251.528 66.9507 253.292C64.0013 255.108 61.5856 257.692 59.9546 260.775C58.3769 263.619 57.088 266.712 54.8559 269.118C53.6952 270.332 52.2945 271.283 50.7456 271.91C49.1966 272.537 47.5344 272.825 45.868 272.755C41.7113 272.69 37.8255 271.115 34.0783 269.442C29.9177 267.583 25.6252 265.586 20.9737 265.765C20.4101 265.786 20.4099 264.899 20.9726 264.877C29.0655 264.566 35.6353 270.421 43.4183 271.651C47.05 272.225 50.8743 271.693 53.6542 269.077C56.085 266.79 57.4169 263.601 58.9898 260.707C60.5373 257.676 62.7936 255.075 65.5615 253.132C68.5469 251.215 71.8325 249.826 75.2775 249.026C83.005 247.1 90.9833 246.417 98.9201 247.003C107.982 247.62 116.873 249.804 125.208 253.46C125.724 253.687 125.279 254.452 124.767 254.227Z" fill="white"/>
<path d="M81.9496 248.094C81.7217 245.281 82.4877 242.478 84.1109 240.184C85.7341 237.891 88.1087 236.257 90.8107 235.575C91.3579 235.438 91.5924 236.294 91.0445 236.43C88.5273 237.061 86.3154 238.583 84.8082 240.722C83.301 242.861 82.5977 245.475 82.8253 248.093C82.8741 248.662 81.9981 248.66 81.9496 248.094Z" fill="white"/>
<path d="M60.5668 259.226C64.8748 262.998 70.4269 264.985 76.1161 264.791C76.6798 264.772 76.6802 265.659 76.1172 265.679C70.1965 265.869 64.4228 263.789 59.9483 259.855C59.5221 259.479 60.1429 258.853 60.5668 259.226Z" fill="white"/>
<path d="M107.45 248.666C107.314 249.773 107.452 250.897 107.851 251.937C108.25 252.976 108.897 253.899 109.735 254.623C110.166 254.992 109.544 255.618 109.116 255.251C108.194 254.447 107.481 253.427 107.038 252.28C106.594 251.132 106.435 249.892 106.574 248.667C106.578 248.551 106.625 248.44 106.706 248.357C106.787 248.275 106.896 248.227 107.011 248.223C107.127 248.223 107.238 248.27 107.321 248.353C107.403 248.436 107.449 248.549 107.45 248.666Z" fill="white"/>
<path d="M562.708 333.447C555.235 314.786 538.403 298.971 518.578 297.623C530.995 315.547 536.756 337.344 534.843 359.159C534.075 367.57 532.357 376.843 537.021 383.842C539.924 388.197 544.891 390.783 549.964 391.866C555.038 392.948 560.285 392.696 565.464 392.439L566.641 392.984C569.71 373.087 570.18 352.108 562.708 333.447Z" fill="#F2F2F2"/>
<path d="M518.494 298.037C532.248 307.177 542.811 320.477 548.683 336.048C550.005 339.377 550.802 342.897 551.043 346.478C551.167 349.974 550.365 353.44 548.721 356.515C547.244 359.414 545.403 362.206 544.647 365.418C544.284 367.068 544.27 368.777 544.605 370.433C544.939 372.089 545.616 373.655 546.589 375.027C548.927 378.511 552.361 380.936 555.8 383.189C559.619 385.69 563.624 388.227 566.034 392.264C566.325 392.753 567.057 392.266 566.766 391.777C562.574 384.754 554.137 382.409 548.845 376.495C546.376 373.735 544.713 370.205 545.341 366.413C545.89 363.097 547.787 360.217 549.307 357.295C550.955 354.318 551.858 350.978 551.939 347.567C551.878 343.985 551.216 340.44 549.982 337.083C547.323 329.481 543.5 322.35 538.655 315.952C533.166 308.618 526.479 302.29 518.884 297.242C518.414 296.93 518.027 297.727 518.494 298.037Z" fill="white"/>
<path d="M547.083 330.921C549.527 329.568 551.416 327.379 552.415 324.744C553.413 322.109 553.454 319.2 552.532 316.537C552.343 315.999 551.509 316.27 551.698 316.809C552.561 319.287 552.522 321.997 551.588 324.449C550.654 326.9 548.886 328.933 546.603 330.179C546.107 330.451 546.59 331.191 547.083 330.921Z" fill="white"/>
<path d="M549.661 355.145C544.184 353.57 539.495 349.961 536.527 345.038C536.234 344.55 535.502 345.037 535.795 345.525C538.893 350.643 543.78 354.388 549.483 356.014C550.026 356.169 550.201 355.299 549.661 355.145Z" fill="white"/>
<path d="M532.596 309.643C531.758 310.366 530.756 310.867 529.68 311.101C528.603 311.335 527.487 311.294 526.43 310.982C525.889 310.821 525.714 311.691 526.252 311.851C527.421 312.19 528.654 312.234 529.844 311.978C531.034 311.723 532.143 311.176 533.076 310.385C533.17 310.318 533.236 310.217 533.259 310.103C533.282 309.989 533.262 309.87 533.202 309.771C533.138 309.673 533.038 309.604 532.925 309.581C532.811 309.557 532.693 309.579 532.596 309.643Z" fill="white"/>
<path d="M472.328 347.141C472.663 347.251 472.999 347.362 473.336 347.48C477.836 348.99 482.206 350.869 486.406 353.097C486.733 353.264 487.062 353.438 487.384 353.615C497.445 359.092 506.415 366.414 513.838 375.21C516.789 378.713 519.472 382.439 521.865 386.354C525.17 391.762 528.328 397.892 533.063 401.763C533.553 402.173 534.067 402.551 534.602 402.896L565.893 394.397C565.955 394.342 566.018 394.294 566.08 394.238L567.345 393.957C567.235 393.746 567.117 393.53 567.008 393.319C566.945 393.197 566.875 393.076 566.812 392.954C566.768 392.873 566.723 392.792 566.688 392.716C566.673 392.689 566.658 392.662 566.645 392.642C566.61 392.566 566.569 392.5 566.536 392.431C565.879 391.221 565.213 390.014 564.538 388.809C564.536 388.802 564.536 388.802 564.527 388.797C559.356 379.63 553.385 370.821 546.285 363.21C546.071 362.981 545.856 362.745 545.628 362.52C542.408 359.107 538.919 355.967 535.195 353.131C533.151 351.584 531.031 350.144 528.843 348.814C523.183 345.391 517.027 342.891 510.601 341.406C497.791 338.449 484.189 339.677 473.165 346.603C472.883 346.781 472.608 346.956 472.328 347.141Z" fill="#F2F2F2"/>
<path d="M472.505 347.524C488.916 346.429 505.25 350.602 519.187 359.452C522.221 361.303 524.948 363.627 527.268 366.339C529.443 369.055 530.862 372.311 531.375 375.77C531.918 378.986 532.107 382.339 533.411 385.365C534.102 386.903 535.105 388.277 536.356 389.395C537.607 390.513 539.077 391.35 540.67 391.852C544.606 393.207 548.788 393.048 552.873 392.748C557.408 392.415 562.113 391.996 566.434 393.749C566.958 393.962 567.252 393.126 566.729 392.914C559.211 389.864 551.081 393.14 543.343 391.647C539.733 390.951 536.307 389.147 534.556 385.736C533.026 382.753 532.829 379.296 532.307 376.035C531.854 372.653 530.592 369.435 528.629 366.662C526.453 363.839 523.819 361.412 520.84 359.485C514.201 355.038 506.913 351.677 499.244 349.525C490.504 347.019 481.406 346.048 472.344 346.652C471.783 346.689 471.947 347.562 472.505 347.524Z" fill="white"/>
<path d="M514.865 356.334C516.012 353.763 516.22 350.861 515.452 348.148C514.684 345.436 512.989 343.088 510.671 341.524C510.201 341.21 509.696 341.936 510.167 342.251C512.328 343.702 513.907 345.89 514.617 348.417C515.327 350.945 515.123 353.647 514.04 356.035C513.806 356.554 514.632 356.851 514.865 356.334Z" fill="white"/>
<path d="M531.312 374.103C526.004 376.188 520.116 376.168 514.822 374.047C514.297 373.837 514.003 374.673 514.526 374.883C520.04 377.079 526.167 377.087 531.686 374.906C532.212 374.697 531.835 373.896 531.312 374.103Z" fill="white"/>
<path d="M490.658 348.186C490.419 349.275 489.916 350.286 489.196 351.13C488.476 351.973 487.56 352.622 486.531 353.018C486.003 353.219 486.38 354.021 486.905 353.82C488.04 353.378 489.05 352.66 489.848 351.73C490.646 350.8 491.207 349.686 491.483 348.485C491.518 348.374 491.51 348.254 491.461 348.149C491.412 348.043 491.325 347.961 491.218 347.918C491.109 347.879 490.989 347.885 490.884 347.935C490.779 347.986 490.698 348.076 490.658 348.186Z" fill="white"/>
<path d="M417.738 396.99C421.804 396.99 425.1 393.649 425.1 389.528C425.1 385.407 421.804 382.066 417.738 382.066C413.672 382.066 410.376 385.407 410.376 389.528C410.376 393.649 413.672 396.99 417.738 396.99Z" fill="#18b4f7"/>
<path d="M443.815 269.901C447.881 269.901 451.177 266.56 451.177 262.439C451.177 258.318 447.881 254.978 443.815 254.978C439.749 254.978 436.453 258.318 436.453 262.439C436.453 266.56 439.749 269.901 443.815 269.901Z" fill="#E6E6E6"/>
<path d="M306.83 62.9288C310.896 62.9288 314.192 59.5881 314.192 55.4672C314.192 51.3462 310.896 48.0055 306.83 48.0055C302.764 48.0055 299.468 51.3462 299.468 55.4672C299.468 59.5881 302.764 62.9288 306.83 62.9288Z" fill="#E6E6E6"/>
<path d="M152.56 341.695C152.56 343.595 152.622 345.494 152.753 347.378C152.892 349.629 153.131 351.865 153.455 354.085C154.543 361.559 156.624 368.85 159.64 375.76C159.794 376.104 159.948 376.448 160.102 376.792L160.334 377.308C160.411 377.479 160.496 377.651 160.573 377.816C160.681 378.042 160.781 378.261 160.889 378.48C161.02 378.754 161.151 379.027 161.29 379.301C161.305 379.332 161.321 379.371 161.344 379.41C161.46 379.645 161.568 379.871 161.691 380.106C161.714 380.157 161.739 380.207 161.768 380.254C161.899 380.52 162.038 380.794 162.177 381.059C162.331 381.341 162.478 381.63 162.632 381.911C163.002 382.607 163.388 383.295 163.781 383.983C163.897 384.186 164.012 384.389 164.136 384.593C164.244 384.78 164.352 384.968 164.467 385.155C164.544 385.28 164.621 385.413 164.699 385.538C164.822 385.749 164.945 385.953 165.076 386.164C165.362 386.625 165.655 387.086 165.94 387.547H165.948C166.079 387.758 166.218 387.969 166.357 388.173V388.18C166.765 388.806 167.19 389.431 167.614 390.048L167.617 390.049L167.619 390.051L167.621 390.053L167.621 390.056C167.961 390.556 168.315 391.041 168.662 391.526V391.534C168.894 391.838 169.118 392.151 169.349 392.456C169.534 392.706 169.727 392.964 169.92 393.214C169.958 393.269 170.004 393.316 170.043 393.37V393.378C170.097 393.449 170.151 393.511 170.205 393.581C171.022 394.645 171.866 395.684 172.734 396.7L172.873 396.864C172.919 396.919 172.973 396.974 173.02 397.036C173.097 397.122 173.166 397.208 173.243 397.294C173.313 397.38 173.39 397.466 173.467 397.552C177.996 402.724 183.132 407.315 188.76 411.223C189.508 411.747 190.271 412.255 191.035 412.748C191.227 412.873 191.42 412.998 191.613 413.115C191.667 413.154 191.729 413.193 191.783 413.232C191.891 413.295 191.991 413.357 192.099 413.428C192.199 413.49 192.299 413.553 192.407 413.615C192.816 413.873 193.233 414.123 193.649 414.373C193.749 414.436 193.857 414.498 193.965 414.561C194.065 414.616 194.173 414.678 194.281 414.741C194.281 414.749 194.281 414.749 194.289 414.749H194.297V414.756H194.304C194.821 415.061 195.346 415.358 195.878 415.648C196.163 415.804 196.456 415.968 196.749 416.117C197.412 416.484 198.083 416.836 198.754 417.172C198.993 417.289 199.24 417.406 199.479 417.531C199.68 417.625 199.88 417.727 200.081 417.82C200.142 417.852 200.196 417.875 200.25 417.906C200.42 417.985 200.582 418.063 200.752 418.141C200.937 418.227 201.122 418.313 201.299 418.399C201.507 418.493 201.708 418.587 201.916 418.673C202.687 419.024 203.466 419.36 204.245 419.681C207.036 420.841 209.889 421.843 212.79 422.682C212.921 422.721 213.06 422.761 213.199 422.8C214.44 423.151 215.69 423.472 216.947 423.761C219.144 424.277 221.363 424.699 223.602 425.027H223.617C223.887 425.066 224.149 425.105 224.419 425.145C224.442 425.145 224.466 425.152 224.496 425.152C224.496 425.16 224.496 425.16 224.504 425.152C224.797 425.191 225.098 425.231 225.391 425.27C225.411 425.276 225.432 425.278 225.453 425.277C225.73 425.317 226.016 425.348 226.293 425.379C226.594 425.41 226.895 425.442 227.196 425.473C227.427 425.496 227.658 425.52 227.89 425.543C227.909 425.55 227.93 425.553 227.951 425.551C228.16 425.567 228.368 425.59 228.576 425.606H228.607C228.784 425.621 228.969 425.637 229.147 425.653C231.298 425.825 233.458 425.903 235.648 425.903C238.015 425.903 240.367 425.809 242.689 425.606H242.712C243.213 425.559 243.707 425.512 244.2 425.465C244.331 425.449 244.455 425.442 244.586 425.426C244.609 425.426 244.64 425.418 244.663 425.418C244.702 425.41 244.74 425.41 244.786 425.403C244.807 425.403 244.828 425.401 244.848 425.395C245.018 425.379 245.187 425.356 245.365 425.34L245.943 425.27C246.136 425.246 246.329 425.215 246.522 425.191C246.568 425.184 246.606 425.184 246.653 425.176C246.791 425.16 246.93 425.137 247.069 425.113C247.138 425.106 247.208 425.098 247.27 425.09C247.408 425.066 247.539 425.051 247.678 425.027H247.686C251.918 424.41 256.095 423.456 260.179 422.174C260.395 422.104 260.611 422.041 260.827 421.971C260.835 421.971 260.842 421.963 260.85 421.963C260.912 421.94 260.981 421.924 261.043 421.901C261.621 421.713 262.192 421.518 262.763 421.314C263.549 421.049 264.328 420.76 265.107 420.463C265.315 420.377 265.524 420.298 265.732 420.212C266.156 420.048 266.572 419.876 266.989 419.704C267.698 419.415 268.408 419.11 269.11 418.798C269.765 418.501 270.413 418.204 271.061 417.891C271.076 417.883 271.099 417.883 271.115 417.867C271.261 417.797 271.408 417.727 271.547 417.656H271.554C275.106 415.929 278.531 413.946 281.803 411.724C282.852 411.012 283.885 410.278 284.903 409.519C285.721 408.902 286.523 408.277 287.325 407.636C291.282 404.446 294.945 400.898 298.268 397.036V397.029C298.507 396.763 298.731 396.489 298.962 396.216C299.001 396.177 299.032 396.137 299.062 396.106C299.209 395.926 299.348 395.755 299.494 395.583V395.575C299.687 395.348 299.88 395.114 300.065 394.879C300.111 394.824 300.15 394.777 300.188 394.731V394.723C300.343 394.535 300.489 394.348 300.643 394.152C300.721 394.058 300.79 393.965 300.867 393.871V393.863C301.322 393.284 301.762 392.706 302.201 392.112C302.317 391.956 302.433 391.792 302.556 391.627C303.111 390.869 303.651 390.095 304.175 389.322V389.314C304.376 389.024 304.569 388.727 304.769 388.438C304.962 388.141 305.155 387.844 305.348 387.547C305.54 387.235 305.741 386.93 305.934 386.617L305.957 386.57C306.15 386.273 306.342 385.96 306.528 385.656C306.674 385.405 306.821 385.163 306.967 384.921C307.06 384.757 307.16 384.593 307.252 384.421C307.289 384.368 307.322 384.313 307.353 384.257C307.569 383.874 307.785 383.49 308 383.107C308.255 382.662 308.502 382.209 308.749 381.755C308.841 381.568 308.941 381.38 309.042 381.192C309.08 381.13 309.111 381.067 309.142 381.005C309.258 380.786 309.373 380.559 309.481 380.333C309.597 380.114 309.713 379.887 309.828 379.66C309.936 379.442 310.052 379.215 310.16 378.988C310.245 378.816 310.322 378.644 310.407 378.472C310.413 378.458 310.42 378.445 310.43 378.433C310.468 378.347 310.507 378.269 310.538 378.191C310.547 378.179 310.555 378.166 310.561 378.152C310.646 377.98 310.723 377.8 310.808 377.628C310.916 377.401 311.016 377.167 311.124 376.94C311.193 376.784 311.27 376.62 311.34 376.456C311.44 376.229 311.548 376.002 311.641 375.768C311.748 375.533 311.849 375.299 311.949 375.056C311.978 374.998 312.004 374.938 312.026 374.877C312.08 374.767 312.119 374.658 312.165 374.548C312.288 374.259 312.412 373.962 312.527 373.673C312.666 373.345 312.797 373.009 312.921 372.68C313.044 372.375 313.16 372.063 313.275 371.75L313.322 371.641C315.119 366.844 316.481 361.891 317.394 356.844V356.836C317.908 353.955 318.276 351.048 318.496 348.129C318.504 347.964 318.52 347.808 318.527 347.652C318.666 345.674 318.728 343.689 318.728 341.696C318.728 340.812 318.712 339.937 318.689 339.061C318.151 320.752 311.709 303.126 300.35 288.879C300.104 288.567 299.857 288.254 299.602 287.941C299.348 287.629 299.086 287.324 298.831 287.019C290.377 276.984 279.715 269.103 267.705 264.011C255.694 258.92 242.672 256.759 229.686 257.705C216.701 258.65 204.117 262.675 192.947 269.454C181.778 276.234 172.337 285.579 165.385 296.735C165.007 297.345 164.629 297.962 164.267 298.58C163.897 299.205 163.542 299.83 163.187 300.464C156.201 313.051 152.54 327.253 152.56 341.695Z" fill="#CEDBDC"/>
<path d="M232.346 286.615C246.008 290.168 260.009 292.217 274.104 292.724C276.236 292.842 278.372 292.827 280.502 292.68C285.183 292.281 289.192 290.79 293.656 289.975C295.803 289.585 298.194 289.299 300.355 288.877C299.855 288.249 299.347 287.629 298.83 287.016C294.17 287.415 289.438 288.722 284.723 289.328C276.707 290.362 267.725 289.209 261.648 286.365C258.7 284.986 256.442 283.264 253.504 281.878C253.104 281.67 252.671 281.535 252.225 281.481C251.378 281.455 250.542 281.675 249.814 282.115C244.885 284.637 237.729 286.687 231.086 285.559C230.591 285.952 231.532 286.399 232.346 286.615Z" fill="white"/>
<path d="M202.952 295.491C202.892 295.48 202.831 295.471 202.77 295.46C203.025 295.3 203.265 295.117 203.488 294.912L202.952 295.491Z" fill="white"/>
<path d="M163.189 300.467C165.963 300.691 168.752 300.859 171.555 300.969C173.687 301.085 175.823 301.071 177.953 300.925C182.633 300.523 186.642 299.035 191.107 298.22C195.199 297.474 200.172 297.115 202.77 295.46C196.055 294.282 189.098 296.68 182.173 297.573C176.573 298.271 170.895 297.987 165.389 296.733C164.623 297.955 163.889 299.2 163.189 300.467Z" fill="white"/>
<path d="M196.75 416.117C197.413 416.484 198.084 416.836 198.755 417.172C198.994 417.289 199.24 417.406 199.48 417.531C199.68 417.625 199.881 417.727 200.081 417.821C200.143 417.852 200.197 417.875 200.251 417.907C200.42 417.985 200.582 418.063 200.752 418.141C200.937 418.227 201.122 418.313 201.3 418.399C201.508 418.493 201.708 418.587 201.916 418.673C202.688 419.024 203.467 419.36 204.245 419.681C207.037 420.841 209.889 421.843 212.79 422.682C212.921 422.722 213.06 422.761 213.199 422.8C214.441 423.151 215.69 423.472 216.947 423.761C219.145 424.277 221.363 424.699 223.602 425.027H223.618C223.888 425.067 224.15 425.106 224.42 425.145C224.443 425.145 224.466 425.152 224.497 425.152C224.497 425.16 224.497 425.16 224.505 425.152C224.798 425.192 225.098 425.231 225.391 425.27C225.411 425.276 225.432 425.278 225.453 425.278C225.731 425.317 226.016 425.348 226.294 425.379C226.594 425.41 226.895 425.442 227.196 425.473C227.427 425.496 227.659 425.52 227.89 425.543C227.91 425.55 227.931 425.553 227.952 425.551C228.16 425.567 228.368 425.59 228.576 425.606H228.607C228.785 425.621 228.97 425.637 229.147 425.653C231.299 425.825 233.458 425.903 235.648 425.903C238.016 425.903 240.368 425.809 242.689 425.606H242.712C243.214 425.559 243.707 425.512 244.201 425.465C244.332 425.45 244.455 425.442 244.586 425.426C244.609 425.426 244.64 425.418 244.663 425.418C244.702 425.41 244.74 425.41 244.787 425.403C244.808 425.403 244.828 425.401 244.848 425.395C245.018 425.379 245.188 425.356 245.365 425.34L245.944 425.27C246.136 425.246 246.329 425.215 246.522 425.192C246.568 425.184 246.607 425.184 246.653 425.176C246.792 425.16 246.931 425.137 247.069 425.113C247.139 425.106 247.208 425.098 247.27 425.09C247.409 425.067 247.54 425.051 247.679 425.027H247.686C251.918 424.41 256.095 423.456 260.18 422.174C260.396 422.104 260.612 422.042 260.827 421.971C259.832 417.264 257.782 412.853 254.836 409.077C251.89 405.301 248.127 402.262 243.838 400.194C244.899 399.17 245.632 397.847 245.944 396.396C246.144 395.46 246.16 394.494 245.99 393.552C245.821 392.61 245.469 391.712 244.956 390.908C243.956 389.351 242.386 388.26 240.592 387.876L229.163 385.452C227.323 385.089 225.416 385.476 223.856 386.53C222.296 387.584 221.21 389.219 220.834 391.08C220.717 391.651 220.665 392.233 220.679 392.816C209.675 400.241 201.755 407.94 196.75 416.117Z" fill="#18b4f7"/>
<path d="M230.495 380.877C243.646 380.877 254.306 370.072 254.306 356.743C254.306 343.414 243.646 332.609 230.495 332.609C217.345 332.609 206.685 343.414 206.685 356.743C206.685 370.072 217.345 380.877 230.495 380.877Z" fill="#FFB8B8"/>
<path d="M215.654 377.55C213.115 375.792 210.522 372.414 208.791 369.882C206.497 366.554 204.919 362.775 204.158 358.789C203.398 354.803 203.472 350.699 204.376 346.744C204.665 345.163 205.373 343.692 206.426 342.488C207.547 341.363 209.379 340.83 210.748 341.626C210.374 340.612 210.21 339.531 210.264 338.45C210.319 337.369 210.591 336.311 211.065 335.341C212.027 333.405 213.421 331.722 215.136 330.426C218.417 327.866 222.32 326.253 226.432 325.76C230.544 325.267 234.711 325.911 238.491 327.624C239.978 328.323 237.535 322.928 239.092 323.448C240.638 324.055 242.358 324.024 243.882 323.362C245.346 322.615 250.2 327.054 249.638 325.493C250.749 326.004 251.715 326.792 252.444 327.784C253.174 328.775 253.644 329.937 253.812 331.163C253.979 332.388 253.837 333.636 253.4 334.791C252.964 335.946 252.245 336.97 251.313 337.768C250.084 338.819 248.55 339.424 247.204 340.317C244.847 341.998 243.178 344.496 242.513 347.339C241.848 350.181 242.234 353.172 243.596 355.747C242.18 354.825 240.627 354.141 238.996 353.721C238.178 353.519 237.324 353.517 236.505 353.717C235.686 353.917 234.926 354.311 234.288 354.869C233.755 355.487 233.352 356.209 233.105 356.991C232.857 357.773 232.77 358.598 232.848 359.415C232.901 361.053 233.286 362.666 233.329 364.304C233.456 369.111 235.995 378.249 232.319 380.804C229.417 382.82 219.121 379.951 215.654 377.55Z" fill="#2F2E41"/>
<path d="M246.868 235.946C246.366 235.945 245.87 235.843 245.407 235.647C244.717 235.366 244.126 234.88 243.713 234.253C243.3 233.626 243.083 232.887 243.091 232.133V228.313C243.09 227.512 242.775 226.744 242.217 226.177C241.658 225.611 240.9 225.292 240.109 225.291C239.114 225.29 238.16 224.889 237.456 224.175C236.753 223.462 236.357 222.495 236.356 221.487V169.151C236.357 168.143 236.753 167.176 237.456 166.463C238.16 165.75 239.114 165.348 240.109 165.347H411.178C412.173 165.348 413.127 165.749 413.831 166.463C414.535 167.176 414.93 168.143 414.932 169.151V221.487C414.93 222.495 414.535 223.462 413.831 224.175C413.127 224.889 412.173 225.29 411.178 225.291H260.137C259.746 225.29 259.358 225.367 258.996 225.519C258.634 225.671 258.305 225.894 258.029 226.176L249.498 234.823C249.155 235.177 248.745 235.459 248.294 235.652C247.842 235.845 247.358 235.945 246.868 235.946Z" fill="#C8D3F1"/>
<path d="M246.867 236.728C246.264 236.727 245.667 236.605 245.111 236.369C244.279 236.03 243.568 235.444 243.069 234.688C242.571 233.933 242.31 233.042 242.319 232.133V228.314C242.319 227.719 242.086 227.15 241.671 226.73C241.257 226.31 240.695 226.073 240.109 226.072C238.909 226.071 237.759 225.587 236.911 224.728C236.063 223.868 235.586 222.702 235.584 221.486V169.151C235.586 167.935 236.063 166.77 236.911 165.91C237.759 165.05 238.909 164.567 240.108 164.565H411.178C412.378 164.567 413.528 165.05 414.376 165.91C415.224 166.77 415.701 167.935 415.702 169.151V221.486C415.701 222.702 415.224 223.868 414.376 224.728C413.528 225.587 412.378 226.071 411.178 226.072H260.137C259.847 226.072 259.559 226.129 259.29 226.242C259.022 226.354 258.778 226.52 258.574 226.729L250.043 235.375C249.628 235.802 249.134 236.142 248.589 236.374C248.044 236.606 247.459 236.726 246.867 236.728ZM240.108 166.129C239.318 166.13 238.56 166.448 238.001 167.015C237.442 167.582 237.128 168.35 237.127 169.151V221.486C237.128 222.288 237.442 223.056 238.001 223.623C238.56 224.189 239.318 224.508 240.109 224.509C241.104 224.51 242.058 224.912 242.761 225.625C243.465 226.338 243.861 227.305 243.862 228.314V232.133C243.862 232.731 244.037 233.315 244.364 233.812C244.692 234.309 245.158 234.696 245.703 234.925C246.247 235.154 246.847 235.213 247.425 235.097C248.004 234.98 248.535 234.692 248.952 234.27L257.483 225.624C257.831 225.269 258.244 224.988 258.7 224.797C259.155 224.605 259.644 224.508 260.137 224.509H411.178C411.969 224.508 412.727 224.189 413.286 223.623C413.845 223.056 414.159 222.288 414.16 221.486V169.151C414.159 168.35 413.845 167.582 413.286 167.015C412.727 166.448 411.969 166.13 411.178 166.129L240.108 166.129Z" fill="#3F3D56"/>
<path d="M396.478 189.041H257.758C257.228 189.041 256.72 188.828 256.345 188.448C255.971 188.068 255.76 187.553 255.76 187.016C255.76 186.479 255.971 185.964 256.345 185.584C256.72 185.204 257.228 184.991 257.758 184.991H396.478C397.008 184.991 397.516 185.204 397.891 185.584C398.265 185.964 398.476 186.479 398.476 187.016C398.476 187.553 398.265 188.068 397.891 188.448C397.516 188.828 397.008 189.041 396.478 189.041Z" fill="#18b4f7"/>
<path d="M396.223 197.644H257.758C257.228 197.644 256.72 197.431 256.345 197.051C255.971 196.672 255.76 196.156 255.76 195.619C255.76 195.082 255.971 194.567 256.345 194.187C256.72 193.808 257.228 193.594 257.758 193.594H396.223C396.753 193.594 397.261 193.808 397.636 194.187C398.011 194.567 398.221 195.082 398.221 195.619C398.221 196.156 398.011 196.672 397.636 197.051C397.261 197.431 396.753 197.644 396.223 197.644Z" fill="#E6E6E6"/>
<path d="M396.085 206.248H257.758C257.228 206.248 256.72 206.034 256.345 205.654C255.971 205.275 255.76 204.759 255.76 204.222C255.76 203.685 255.971 203.17 256.345 202.79C256.72 202.411 257.228 202.197 257.758 202.197H396.085C396.615 202.197 397.123 202.411 397.498 202.79C397.873 203.17 398.083 203.685 398.083 204.222C398.083 204.759 397.873 205.275 397.498 205.654C397.123 206.034 396.615 206.248 396.085 206.248Z" fill="#E6E6E6"/>
<path d="M614.933 157.226C614.933 159.125 614.872 161.025 614.74 162.908C614.602 165.16 614.363 167.395 614.039 169.615C612.95 177.09 610.87 184.381 607.854 191.29C607.7 191.634 607.545 191.978 607.391 192.322L607.16 192.838C607.083 193.01 606.998 193.182 606.921 193.346C606.813 193.573 606.712 193.791 606.604 194.01C606.473 194.284 606.342 194.557 606.203 194.831C606.188 194.862 606.173 194.901 606.149 194.94C606.034 195.175 605.926 195.402 605.802 195.636C605.78 195.687 605.754 195.737 605.725 195.785C605.594 196.05 605.455 196.324 605.317 196.59C605.162 196.871 605.016 197.16 604.862 197.442C604.491 198.137 604.106 198.825 603.712 199.513C603.597 199.716 603.481 199.92 603.358 200.123C603.25 200.31 603.142 200.498 603.026 200.686C602.949 200.811 602.872 200.944 602.795 201.069C602.671 201.28 602.548 201.483 602.417 201.694C602.132 202.155 601.838 202.616 601.553 203.077H601.545C601.414 203.289 601.276 203.5 601.137 203.703V203.711C600.728 204.336 600.304 204.961 599.88 205.579L599.877 205.579L599.874 205.581L599.872 205.584L599.872 205.587C599.533 206.087 599.178 206.571 598.831 207.056V207.064C598.599 207.369 598.376 207.681 598.144 207.986C597.959 208.236 597.767 208.494 597.574 208.744C597.535 208.799 597.489 208.846 597.45 208.901V208.909C597.396 208.979 597.342 209.041 597.288 209.112C596.471 210.175 595.628 211.214 594.759 212.231L594.62 212.395C594.574 212.449 594.52 212.504 594.474 212.567C594.397 212.653 594.327 212.739 594.25 212.825C594.181 212.911 594.103 212.997 594.026 213.083C589.497 218.254 584.361 222.845 578.734 226.754C577.986 227.277 577.222 227.785 576.459 228.278C576.266 228.403 576.073 228.528 575.88 228.645C575.826 228.684 575.765 228.723 575.711 228.763C575.603 228.825 575.502 228.888 575.394 228.958C575.294 229.02 575.194 229.083 575.086 229.146C574.677 229.403 574.261 229.654 573.844 229.904C573.744 229.966 573.636 230.029 573.528 230.091C573.428 230.146 573.32 230.209 573.212 230.271C573.212 230.279 573.212 230.279 573.204 230.279H573.197V230.287H573.189C572.672 230.592 572.148 230.889 571.616 231.178C571.33 231.334 571.037 231.498 570.744 231.647C570.081 232.014 569.41 232.366 568.739 232.702C568.5 232.819 568.253 232.937 568.014 233.062C567.814 233.155 567.613 233.257 567.413 233.351C567.351 233.382 567.297 233.406 567.243 233.437C567.073 233.515 566.911 233.593 566.742 233.671C566.557 233.757 566.372 233.843 566.194 233.929C565.986 234.023 565.785 234.117 565.577 234.203C564.806 234.555 564.027 234.891 563.248 235.211C560.457 236.371 557.604 237.373 554.704 238.213C554.572 238.252 554.434 238.291 554.295 238.33C553.053 238.682 551.804 239.002 550.547 239.291C548.349 239.807 546.13 240.229 543.891 240.558H543.876C543.606 240.597 543.344 240.636 543.074 240.675C543.051 240.675 543.028 240.683 542.997 240.683C542.997 240.691 542.997 240.691 542.989 240.683C542.696 240.722 542.395 240.761 542.102 240.8C542.082 240.806 542.061 240.809 542.041 240.808C541.763 240.847 541.478 240.878 541.2 240.909C540.899 240.941 540.599 240.972 540.298 241.003C540.066 241.027 539.835 241.05 539.604 241.074C539.584 241.08 539.563 241.083 539.542 241.081C539.334 241.097 539.126 241.12 538.917 241.136H538.886C538.709 241.152 538.524 241.167 538.347 241.183C536.195 241.355 534.036 241.433 531.846 241.433C529.478 241.433 527.126 241.339 524.805 241.136H524.781C524.28 241.089 523.787 241.042 523.293 240.995C523.162 240.98 523.039 240.972 522.908 240.956C522.884 240.956 522.853 240.948 522.83 240.948C522.792 240.941 522.753 240.941 522.707 240.933C522.686 240.934 522.665 240.931 522.645 240.925C522.476 240.909 522.306 240.886 522.129 240.87L521.55 240.8C521.357 240.777 521.165 240.745 520.972 240.722C520.926 240.714 520.887 240.714 520.841 240.706C520.702 240.69 520.563 240.667 520.424 240.644C520.355 240.636 520.285 240.628 520.224 240.62C520.085 240.597 519.954 240.581 519.815 240.558H519.807C515.576 239.94 511.398 238.986 507.314 237.705C507.098 237.634 506.882 237.572 506.666 237.501C506.659 237.501 506.651 237.494 506.643 237.494C506.581 237.47 506.512 237.454 506.45 237.431C505.872 237.243 505.301 237.048 504.731 236.845C503.944 236.579 503.165 236.29 502.386 235.993C502.178 235.907 501.97 235.829 501.762 235.743C501.337 235.579 500.921 235.407 500.505 235.235C499.795 234.945 499.086 234.641 498.384 234.328C497.728 234.031 497.08 233.734 496.433 233.421C496.417 233.413 496.394 233.413 496.379 233.398C496.232 233.327 496.086 233.257 495.947 233.187H495.939C492.388 231.459 488.963 229.477 485.69 227.254C484.641 226.543 483.608 225.808 482.59 225.05C481.772 224.432 480.97 223.807 480.168 223.166C476.212 219.976 472.549 216.428 469.225 212.567V212.559C468.986 212.293 468.762 212.02 468.531 211.746C468.493 211.707 468.462 211.668 468.431 211.637C468.284 211.457 468.146 211.285 467.999 211.113V211.105C467.806 210.878 467.613 210.644 467.428 210.409C467.382 210.355 467.343 210.308 467.305 210.261V210.253C467.151 210.065 467.004 209.878 466.85 209.682C466.773 209.589 466.703 209.495 466.626 209.401V209.393C466.171 208.815 465.732 208.236 465.292 207.642C465.176 207.486 465.061 207.322 464.937 207.158C464.382 206.399 463.842 205.626 463.318 204.852V204.844C463.117 204.555 462.925 204.258 462.724 203.969C462.531 203.672 462.338 203.375 462.146 203.078C461.953 202.765 461.752 202.46 461.56 202.147L461.536 202.1C461.344 201.803 461.151 201.491 460.966 201.186C460.819 200.936 460.673 200.693 460.526 200.451C460.434 200.287 460.333 200.123 460.241 199.951C460.205 199.898 460.171 199.843 460.141 199.787C459.925 199.404 459.709 199.021 459.493 198.638C459.238 198.192 458.992 197.739 458.745 197.285C458.652 197.098 458.552 196.91 458.452 196.723C458.413 196.66 458.382 196.598 458.351 196.535C458.236 196.316 458.12 196.09 458.012 195.863C457.896 195.644 457.781 195.417 457.665 195.191C457.557 194.972 457.441 194.745 457.333 194.518C457.249 194.346 457.172 194.175 457.087 194.003C457.081 193.989 457.073 193.975 457.064 193.963C457.025 193.877 456.986 193.799 456.956 193.721C456.946 193.709 456.938 193.696 456.933 193.682C456.848 193.51 456.771 193.33 456.686 193.158C456.578 192.932 456.477 192.697 456.37 192.471C456.3 192.314 456.223 192.15 456.154 191.986C456.053 191.759 455.945 191.533 455.853 191.298C455.745 191.064 455.645 190.829 455.544 190.587C455.515 190.528 455.49 190.468 455.467 190.407C455.413 190.298 455.375 190.188 455.328 190.079C455.205 189.789 455.082 189.492 454.966 189.203C454.827 188.875 454.696 188.539 454.573 188.211C454.449 187.906 454.334 187.593 454.218 187.28L454.172 187.171C452.375 182.374 451.012 177.421 450.1 172.374V172.366C449.585 169.485 449.217 166.579 448.997 163.659C448.989 163.495 448.974 163.338 448.966 163.182C448.827 161.204 448.766 159.219 448.766 157.226C448.766 156.343 448.781 155.467 448.804 154.592C449.342 136.283 455.784 118.656 467.143 104.41C467.39 104.097 467.637 103.784 467.891 103.472C468.146 103.159 468.408 102.854 468.662 102.549C477.116 92.5146 487.778 84.6336 499.789 79.5418C511.799 74.4499 524.822 72.2896 537.807 73.235C550.792 74.1805 563.377 78.2052 574.546 84.9847C585.715 91.7642 595.156 101.109 602.108 112.265C602.486 112.875 602.864 113.492 603.227 114.11C603.597 114.735 603.951 115.361 604.306 115.994C611.293 128.581 614.953 142.784 614.933 157.226Z" fill="#CEDBDC"/>
<path d="M535.148 102.146C521.485 105.699 507.485 107.747 493.389 108.254C491.258 108.372 489.121 108.357 486.991 108.21C482.311 107.811 478.302 106.32 473.837 105.506C471.691 105.115 469.3 104.829 467.139 104.407C467.638 103.779 468.146 103.159 468.664 102.547C473.323 102.946 478.055 104.252 482.771 104.859C490.787 105.892 499.768 104.739 505.845 101.896C508.793 100.516 511.052 98.7941 513.99 97.4081C514.389 97.2001 514.822 97.0658 515.268 97.0112C516.115 96.9854 516.952 97.2054 517.68 97.6454C522.609 100.167 529.765 102.217 536.407 101.089C536.902 101.482 535.962 101.929 535.148 102.146Z" fill="white"/>
<path d="M564.541 111.021C564.602 111.01 564.663 111.001 564.723 110.991C564.468 110.83 564.228 110.647 564.005 110.442L564.541 111.021Z" fill="white"/>
<path d="M604.305 115.997C601.53 116.222 598.742 116.389 595.938 116.499C593.807 116.616 591.67 116.601 589.54 116.455C584.86 116.054 580.851 114.565 576.386 113.75C572.294 113.005 567.322 112.645 564.724 110.991C571.439 109.813 578.396 112.211 585.32 113.103C590.921 113.801 596.598 113.517 602.104 112.263C602.871 113.485 603.604 114.73 604.305 115.997Z" fill="white"/>
<path d="M522.479 194.074C536.261 194.074 547.433 182.497 547.433 168.217C547.433 153.937 536.261 142.36 522.479 142.36C508.697 142.36 497.524 153.937 497.524 168.217C497.524 182.497 508.697 194.074 522.479 194.074Z" fill="#FFB6B6"/>
<path d="M570.744 231.647C570.081 232.014 569.41 232.366 568.739 232.702C568.5 232.819 568.253 232.937 568.014 233.062C567.813 233.155 567.613 233.257 567.412 233.351C567.351 233.382 567.297 233.406 567.243 233.437C567.073 233.515 566.911 233.593 566.741 233.671C566.556 233.757 566.371 233.843 566.194 233.929C565.986 234.023 565.785 234.117 565.577 234.203C564.806 234.555 564.027 234.891 563.248 235.211C560.457 236.371 557.604 237.373 554.703 238.213C554.572 238.252 554.433 238.291 554.295 238.33C553.053 238.682 551.804 239.002 550.547 239.291C548.349 239.807 546.13 240.229 543.891 240.558H543.876C543.606 240.597 543.344 240.636 543.074 240.675C543.051 240.675 543.027 240.683 542.997 240.683C542.997 240.691 542.997 240.691 542.989 240.683C542.696 240.722 542.395 240.761 542.102 240.8C542.082 240.806 542.061 240.809 542.04 240.808C541.763 240.847 541.477 240.878 541.2 240.909C540.899 240.941 540.598 240.972 540.297 241.003C540.066 241.027 539.835 241.05 539.603 241.074C539.584 241.081 539.563 241.083 539.542 241.081C539.333 241.097 539.125 241.121 538.917 241.136H538.886C538.709 241.152 538.524 241.167 538.346 241.183C536.195 241.355 534.035 241.433 531.845 241.433C529.478 241.433 527.126 241.339 524.804 241.136H524.781C524.28 241.089 523.786 241.042 523.293 240.995C523.162 240.98 523.038 240.972 522.907 240.956C522.884 240.956 522.853 240.949 522.83 240.949C522.792 240.941 522.753 240.941 522.707 240.933C522.686 240.934 522.665 240.931 522.645 240.925C522.475 240.909 522.306 240.886 522.128 240.87L521.55 240.8C521.357 240.777 521.164 240.745 520.972 240.722C520.925 240.714 520.887 240.714 520.84 240.706C520.702 240.691 520.563 240.667 520.424 240.644C520.355 240.636 520.285 240.628 520.223 240.62C520.085 240.597 519.954 240.581 519.815 240.558H519.807C515.575 239.94 511.398 238.986 507.314 237.705C507.098 237.634 506.882 237.572 506.666 237.501C507.662 232.795 509.712 228.383 512.658 224.607C515.603 220.831 519.366 217.792 523.655 215.725C522.594 214.7 521.861 213.377 521.55 211.926C521.35 210.99 521.334 210.024 521.503 209.082C521.673 208.141 522.024 207.242 522.537 206.439C523.538 204.881 525.108 203.79 526.902 203.406L538.331 200.983C540.171 200.619 542.078 201.006 543.637 202.06C545.197 203.114 546.283 204.749 546.66 206.611C546.776 207.181 546.828 207.763 546.814 208.346C557.819 215.772 565.739 223.471 570.744 231.647Z" fill="#18b4f7"/>
<path d="M589.255 157.003C585.013 151.99 582.996 145.338 579.605 139.644C576.214 133.951 570.313 128.856 564.079 130.181C559.782 131.094 556.461 134.937 554.78 139.222C553.099 143.508 552.784 148.233 552.489 152.862C552.593 143.349 546.409 134.126 537.891 131.09C529.373 128.055 519.178 131.441 513.826 139.084C511.49 136.889 508.441 135.64 505.257 135.572C502.073 135.504 498.975 136.623 496.55 138.716C491.762 143.053 490.703 151.309 494.224 156.841C497.745 162.373 505.37 164.434 510.966 161.366L512.944 163.21C511.831 167.157 513.99 171.82 517.62 173.306C520.563 174.511 524.719 174.311 525.82 177.442C526.59 179.629 525.152 181.965 523.621 183.646C522.091 185.327 520.274 187.063 520.09 189.389C519.813 192.899 523.391 195.358 526.644 196.098C534.488 197.884 543.192 194.202 547.713 187.186C547.8 187.05 547.895 186.915 547.997 186.779C550.534 183.491 552.382 179.714 553.43 175.678C554.477 171.641 554.702 167.431 554.09 163.303C553.836 161.682 554.092 160.476 555.195 160.092C559.963 158.432 573.321 161.916 577.364 165.064C581.407 168.213 584.644 172.38 588.538 175.732C592.433 179.084 597.395 181.67 602.34 180.757C606.3 180.026 609.669 177.112 611.935 173.597C614.2 170.082 615.505 165.985 616.673 161.913C607.916 167.041 595.931 164.895 589.255 157.003Z" fill="#2F2E41"/>
<path d="M76.984 104.855C76.984 106.755 77.0457 108.654 77.1768 110.538C77.3156 112.789 77.5546 115.024 77.8785 117.244C78.9671 124.719 81.0475 132.01 84.0635 138.92C84.2177 139.263 84.3719 139.607 84.5262 139.951L84.7575 140.467C84.8346 140.639 84.9195 140.811 84.9966 140.975C85.1045 141.202 85.2048 141.421 85.3128 141.64C85.4439 141.913 85.575 142.187 85.7138 142.46C85.7292 142.492 85.7446 142.531 85.7678 142.57C85.8834 142.804 85.9914 143.031 86.1148 143.266C86.1375 143.317 86.1632 143.366 86.1919 143.414C86.323 143.68 86.4619 143.953 86.6007 144.219C86.7549 144.501 86.9014 144.79 87.0557 145.071C87.4258 145.767 87.8114 146.455 88.2047 147.143C88.3204 147.346 88.4361 147.549 88.5595 147.752C88.6674 147.94 88.7754 148.127 88.8911 148.315C88.9682 148.44 89.0453 148.573 89.1224 148.698C89.2458 148.909 89.3692 149.112 89.5003 149.323C89.7856 149.784 90.0787 150.246 90.364 150.707H90.3718C90.5029 150.918 90.6417 151.129 90.7805 151.332V151.34C91.1892 151.965 91.6134 152.591 92.0375 153.208C92.0385 153.208 92.0395 153.208 92.0405 153.209C92.0414 153.209 92.0423 153.21 92.043 153.21C92.0437 153.211 92.0443 153.212 92.0447 153.213C92.0451 153.214 92.0453 153.215 92.0452 153.216C92.3846 153.716 92.7393 154.201 93.0863 154.685V154.693C93.3177 154.998 93.5413 155.311 93.7727 155.616C93.9578 155.866 94.1506 156.124 94.3434 156.374C94.3819 156.428 94.4282 156.475 94.4668 156.53V156.538C94.5207 156.608 94.5747 156.671 94.6287 156.741C95.4462 157.804 96.2893 158.844 97.1582 159.86L97.297 160.024C97.3433 160.079 97.3973 160.134 97.4435 160.196C97.5207 160.282 97.5901 160.368 97.6672 160.454C97.7366 160.54 97.8137 160.626 97.8908 160.712C102.42 165.883 107.556 170.474 113.183 174.383C113.932 174.907 114.695 175.415 115.458 175.907C115.651 176.032 115.844 176.157 116.037 176.275C116.091 176.314 116.153 176.353 116.206 176.392C116.314 176.454 116.415 176.517 116.523 176.587C116.623 176.65 116.723 176.712 116.831 176.775C117.24 177.033 117.656 177.283 118.073 177.533C118.173 177.596 118.281 177.658 118.389 177.721C118.489 177.775 118.597 177.838 118.705 177.901C118.705 177.908 118.705 177.908 118.713 177.908H118.721V177.916H118.728C119.245 178.221 119.769 178.518 120.301 178.807C120.587 178.964 120.88 179.128 121.173 179.276C121.836 179.644 122.507 179.995 123.178 180.331C123.417 180.449 123.664 180.566 123.903 180.691C124.103 180.785 124.304 180.886 124.504 180.98C124.566 181.011 124.62 181.035 124.674 181.066C124.844 181.144 125.006 181.222 125.175 181.301C125.36 181.387 125.546 181.473 125.723 181.559C125.931 181.652 126.132 181.746 126.34 181.832C127.111 182.184 127.89 182.52 128.669 182.84C131.46 184 134.313 185.002 137.214 185.842C137.345 185.881 137.484 185.92 137.622 185.959C138.864 186.311 140.113 186.632 141.37 186.921C143.568 187.437 145.787 187.859 148.026 188.187H148.041C148.311 188.226 148.573 188.265 148.843 188.304C148.866 188.304 148.889 188.312 148.92 188.312C148.92 188.32 148.92 188.32 148.928 188.312C149.221 188.351 149.522 188.39 149.815 188.429C149.835 188.435 149.856 188.438 149.877 188.437C150.154 188.476 150.44 188.507 150.717 188.539C151.018 188.57 151.319 188.601 151.619 188.633C151.851 188.656 152.082 188.679 152.313 188.703C152.333 188.71 152.354 188.713 152.375 188.711C152.583 188.726 152.792 188.75 153 188.765H153.031C153.208 188.781 153.393 188.797 153.571 188.812C155.722 188.984 157.881 189.062 160.072 189.062C162.439 189.062 164.791 188.969 167.113 188.765H167.136C167.637 188.719 168.131 188.672 168.624 188.625C168.755 188.609 168.879 188.601 169.01 188.586C169.033 188.586 169.064 188.578 169.087 188.578C169.125 188.57 169.164 188.57 169.21 188.562C169.231 188.563 169.252 188.56 169.272 188.554C169.442 188.539 169.611 188.515 169.789 188.5L170.367 188.429C170.56 188.406 170.753 188.375 170.945 188.351C170.992 188.343 171.03 188.343 171.076 188.336C171.215 188.32 171.354 188.296 171.493 188.273C171.562 188.265 171.632 188.257 171.693 188.25C171.832 188.226 171.963 188.21 172.102 188.187H172.11C176.342 187.57 180.519 186.616 184.603 185.334C184.819 185.264 185.035 185.201 185.251 185.131C185.259 185.131 185.266 185.123 185.274 185.123C185.336 185.1 185.405 185.084 185.467 185.06C186.045 184.873 186.616 184.677 187.187 184.474C187.973 184.208 188.752 183.919 189.531 183.622C189.739 183.536 189.947 183.458 190.156 183.372C190.58 183.208 190.996 183.036 191.413 182.864C192.122 182.575 192.832 182.27 193.533 181.957C194.189 181.66 194.837 181.363 195.484 181.051C195.5 181.043 195.523 181.043 195.538 181.027C195.685 180.957 195.832 180.886 195.97 180.816H195.978C199.53 179.089 202.955 177.106 206.227 174.883C207.276 174.172 208.309 173.437 209.327 172.679C210.145 172.062 210.947 171.436 211.749 170.795C215.706 167.605 219.368 164.058 222.692 160.196V160.188C222.931 159.923 223.155 159.649 223.386 159.375C223.425 159.336 223.455 159.297 223.486 159.266C223.633 159.086 223.772 158.914 223.918 158.742V158.734C224.111 158.508 224.304 158.273 224.489 158.039C224.535 157.984 224.574 157.937 224.612 157.89V157.882C224.766 157.695 224.913 157.507 225.067 157.312C225.144 157.218 225.214 157.124 225.291 157.03V157.023C225.746 156.444 226.185 155.866 226.625 155.272C226.741 155.115 226.856 154.951 226.98 154.787C227.535 154.029 228.075 153.255 228.599 152.481V152.473C228.8 152.184 228.993 151.887 229.193 151.598C229.386 151.301 229.579 151.004 229.771 150.707C229.964 150.394 230.165 150.089 230.358 149.777L230.381 149.73C230.573 149.433 230.766 149.12 230.951 148.815C231.098 148.565 231.244 148.323 231.391 148.081C231.483 147.916 231.584 147.752 231.676 147.58C231.712 147.527 231.746 147.473 231.777 147.416C231.992 147.033 232.208 146.65 232.424 146.267C232.679 145.822 232.926 145.368 233.172 144.915C233.265 144.727 233.365 144.54 233.465 144.352C233.504 144.29 233.535 144.227 233.566 144.164C233.681 143.946 233.797 143.719 233.905 143.492C234.021 143.273 234.136 143.047 234.252 142.82C234.36 142.601 234.476 142.374 234.584 142.148C234.668 141.976 234.746 141.804 234.83 141.632C234.836 141.618 234.844 141.605 234.854 141.593C234.892 141.507 234.931 141.429 234.962 141.351C234.971 141.339 234.979 141.325 234.985 141.311C235.07 141.139 235.147 140.96 235.231 140.788C235.339 140.561 235.44 140.327 235.548 140.1C235.617 139.944 235.694 139.779 235.764 139.615C235.864 139.389 235.972 139.162 236.064 138.927C236.172 138.693 236.273 138.458 236.373 138.216C236.402 138.158 236.427 138.098 236.45 138.036C236.504 137.927 236.542 137.817 236.589 137.708C236.712 137.419 236.836 137.122 236.951 136.833C237.09 136.504 237.221 136.168 237.344 135.84C237.468 135.535 237.584 135.222 237.699 134.91L237.746 134.8C239.542 130.003 240.905 125.051 241.817 120.004V119.996C242.332 117.114 242.7 114.208 242.92 111.288C242.928 111.124 242.943 110.968 242.951 110.811C243.09 108.834 243.152 106.848 243.152 104.855C243.152 103.972 243.136 103.097 243.113 102.221C242.575 83.9119 236.133 66.2857 224.774 52.039C224.527 51.7264 224.281 51.4137 224.026 51.101C223.772 50.7884 223.509 50.4835 223.255 50.1787C214.801 40.144 204.139 32.263 192.129 27.1711C180.118 22.0793 167.095 19.919 154.11 20.8644C141.125 21.8099 128.54 25.8345 117.371 32.6141C106.202 39.3936 96.761 48.7382 89.8088 59.8946C89.4309 60.5043 89.0531 61.1218 88.6906 61.7394C88.3204 62.3647 87.9657 62.99 87.6109 63.6231C80.6245 76.2102 76.9639 90.4129 76.984 104.855Z" fill="#CEDBDC"/>
<path d="M156.769 49.7749C170.431 53.3281 184.432 55.3762 198.528 55.8837C200.659 56.0014 202.796 55.9867 204.926 55.8396C209.606 55.4406 213.615 53.9496 218.08 53.1349C220.226 52.7443 222.617 52.4587 224.778 52.0366C224.279 51.4087 223.771 50.7885 223.253 50.176C218.594 50.575 213.861 51.8812 209.146 52.4881C201.13 53.5213 192.148 52.3684 186.072 49.525C183.123 48.1453 180.865 46.4233 177.927 45.0373C177.528 44.8294 177.095 44.6951 176.649 44.6405C175.802 44.6147 174.965 44.8347 174.237 45.2746C169.308 47.7967 162.152 49.8463 155.51 48.7186C155.014 49.1113 155.955 49.5586 156.769 49.7749Z" fill="white"/>
<path d="M127.376 58.6506C127.315 58.6394 127.255 58.6306 127.194 58.6199C127.449 58.4597 127.689 58.2762 127.912 58.0718L127.376 58.6506Z" fill="white"/>
<path d="M87.6123 63.6264C90.3865 63.8511 93.1752 64.0184 95.9785 64.1283C98.11 64.245 100.247 64.2302 102.376 64.0842C107.057 63.6831 111.066 62.1942 115.531 61.3794C119.623 60.6339 124.595 60.2749 127.193 58.6201C120.478 57.442 113.521 59.8402 106.597 60.7327C100.996 61.4307 95.3184 61.1466 89.8126 59.8927C89.046 61.1148 88.3126 62.3594 87.6123 63.6264Z" fill="white"/>
<path d="M121.173 179.276C121.836 179.644 122.507 179.995 123.178 180.332C123.417 180.449 123.664 180.566 123.903 180.691C124.103 180.785 124.304 180.886 124.504 180.98C124.566 181.012 124.62 181.035 124.674 181.066C124.844 181.144 125.006 181.223 125.175 181.301C125.36 181.387 125.545 181.473 125.723 181.559C125.931 181.653 126.132 181.746 126.34 181.832C127.111 182.184 127.89 182.52 128.669 182.841C131.46 184 134.313 185.002 137.214 185.842C137.345 185.881 137.483 185.92 137.622 185.959C138.864 186.311 140.113 186.632 141.37 186.921C143.568 187.437 145.787 187.859 148.026 188.187H148.041C148.311 188.226 148.573 188.265 148.843 188.304C148.866 188.304 148.889 188.312 148.92 188.312C148.92 188.32 148.92 188.32 148.928 188.312C149.221 188.351 149.522 188.39 149.815 188.429C149.835 188.435 149.856 188.438 149.876 188.437C150.154 188.476 150.439 188.508 150.717 188.539C151.018 188.57 151.319 188.601 151.619 188.633C151.851 188.656 152.082 188.68 152.313 188.703C152.333 188.71 152.354 188.713 152.375 188.711C152.583 188.726 152.792 188.75 153 188.766H153.031C153.208 188.781 153.393 188.797 153.57 188.812C155.722 188.984 157.881 189.063 160.072 189.063C162.439 189.063 164.791 188.969 167.112 188.766H167.136C167.637 188.719 168.13 188.672 168.624 188.625C168.755 188.609 168.878 188.601 169.01 188.586C169.033 188.586 169.064 188.578 169.087 188.578C169.125 188.57 169.164 188.57 169.21 188.562C169.231 188.563 169.252 188.56 169.272 188.554C169.441 188.539 169.611 188.515 169.789 188.5L170.367 188.429C170.56 188.406 170.752 188.375 170.945 188.351C170.992 188.343 171.03 188.343 171.076 188.336C171.215 188.32 171.354 188.297 171.493 188.273C171.562 188.265 171.632 188.257 171.693 188.25C171.832 188.226 171.963 188.211 172.102 188.187H172.11C176.342 187.57 180.519 186.616 184.603 185.334C184.819 185.264 185.035 185.201 185.251 185.131C184.255 180.424 182.205 176.012 179.259 172.236C176.313 168.46 172.551 165.421 168.262 163.354C169.322 162.33 170.056 161.006 170.367 159.555C170.567 158.62 170.583 157.653 170.414 156.712C170.244 155.77 169.893 154.872 169.38 154.068C168.379 152.511 166.809 151.42 165.015 151.035L153.586 148.612C151.746 148.249 149.839 148.636 148.279 149.69C146.72 150.744 145.634 152.379 145.257 154.24C145.14 154.811 145.089 155.393 145.103 155.975C134.098 163.401 126.178 171.1 121.173 179.276Z" fill="#18b4f7"/>
<path d="M166.387 140.793C181.751 140.793 194.206 128.168 194.206 112.596C194.206 97.0233 181.751 84.3993 166.387 84.3993C151.022 84.3993 138.567 97.0233 138.567 112.596C138.567 128.168 151.022 140.793 166.387 140.793Z" fill="#9E616A"/>
<path d="M162.433 139.285C155.469 141.192 147.791 138.657 142.356 133.849C136.921 129.041 133.521 122.228 131.562 115.191C130.127 110.037 129.447 104.316 131.711 99.4779C133.975 94.6394 140.068 91.375 144.769 93.819C141.869 90.3944 143.318 84.7302 146.705 81.8006C150.092 78.8709 154.743 78.031 159.173 77.5718C165.601 76.9055 172.242 76.8309 178.359 78.9418C184.476 81.0527 190.034 85.6678 191.949 91.9236C193.904 92.8463 196.106 93.0857 198.21 92.6043C200.314 92.1228 202.201 90.9476 203.576 89.2628C203.93 91.1978 203.645 93.1972 202.766 94.9518C201.886 96.7063 200.461 98.1181 198.71 98.9687L208.082 95.8887C209.694 99.347 206.87 103.627 203.258 104.735C199.646 105.842 195.747 104.632 192.32 103.032C188.892 101.432 185.571 99.4088 181.848 98.7848C178.125 98.1609 173.751 99.3733 172.029 102.777C171.127 104.559 171.08 106.647 170.557 108.578C170.033 110.51 168.706 112.513 166.736 112.671C165.491 112.771 164.272 112.099 163.031 112.236C162.269 112.388 161.568 112.762 161.012 113.312C160.457 113.862 160.072 114.564 159.904 115.333C159.595 116.875 159.592 118.463 159.893 120.007L162.274 138.452L162.433 139.285Z" fill="#2F2E41"/>
</g>
<defs>
<clipPath id="clip0_89_131">
<rect width="637" height="426" fill="white"/>
</clipPath>
</defs>
</svg>
